<?xml version="1.0" encoding="utf-8"?>
<!-- Generator: Adobe Illustrator 16.0.0, SVG Export Plug-In . SVG Version: 6.00 Build 0)  -->
<!DOCTYPE svg PUBLIC "-//W3C//DTD SVG 1.1//EN" "http://www.w3.org/Graphics/SVG/1.1/DTD/svg11.dtd">
<svg version="1.1" id="Layer_1" xmlns="http://www.w3.org/2000/svg" xmlns:xlink="http://www.w3.org/1999/xlink" x="0px" y="0px"
	 width="72.945px" height="60.217px" viewBox="0 0 72.945 60.217" enable-background="new 0 0 72.945 60.217" xml:space="preserve">
<path fill="#FFFFFF" d="M10.601,42.832L0,60.216h72.945L62.394,42.679l-0.761,3.818l6.676,11.098H4.668l6.981-11.447L10.601,42.832z
	 M36.703,5.06l5.259,8.741l3.446,0.644C44.26,12.537,36.718,0,36.718,0l-8.925,14.637l3.496-0.698L36.703,5.06"/>
<path fill="#FFFFFF" d="M36.488,14.635c13.49,0,24.466,10.976,24.466,24.466c0,6.711-2.66,12.965-7.49,17.619l-1.037,0.875h-31.74
	l-1.222-0.922c-4.802-4.65-7.442-10.885-7.442-17.572C12.022,25.611,22.997,14.635,36.488,14.635 M36.488,12.014
	c-14.96,0-27.087,12.127-27.087,27.087c0,7.693,3.207,14.639,8.357,19.568l2.049,1.547h33.577l1.833-1.547
	c5.15-4.93,8.357-11.875,8.357-19.568C63.575,24.141,51.448,12.014,36.488,12.014"/>
<path fill="#FFFFFF" d="M43.558,20.603l1.89,3.294l-3.354,3.757l-1.937,0.65l-2.268-0.836l-3.213,1.485l-0.425,1.809l0.851,1.67
	l1.512-2.876l0.613,1.855l-1.512,1.484l-3.59,0.372l-0.852,0.881l0.852,1.021l-1.89,0.789l1.275,1.81l1.465-0.836l1.275-1.345
	l2.221,1.113l0.755,0.324l0.804,1.346l0.426,0.51l-4.347-0.418c0,0-3.463-0.125-3.779,0.186l-1.796,3.155l0.425,3.108l3.59,1.066
	l2.127,1.439v4.175l0.613,2.923h2.127l2.126-1.252l1.464-3.573l-0.188-2.505l1.889-2.689l1.701-3.108l1.937-0.604l1.039,3.713
	l2.74-2.459l0.425,4.731l2.315,1.901l1.748-0.416l-2.174-2.506l0.426-2.273l1.274,0.232L53.1,41.388l1.89-1.253l1.04-3.759
	l0.897-3.34l-1.087-2.272l0.425-0.789l1.465,4.546l0.426-6.216l-3.401-2.923h-5.481L43.558,20.603z M28.346,22.227l-3.165,1.67
	l1.229,5.846l0.851,0.232l1.464-2.691l1.938-1.67L30,23.109L28.346,22.227z M17.526,25.799l-2.314,2.273v1.253l-1.04,2.504
	l-0.661,6.031l1.701,3.34l4.016,4.545l-0.236,3.574l0.897,2.272v5.381l2.504,1.253l-0.425-1.902l2.315-1.252l3.825-4.361
	l-4.016-4.965l-4.677-1.854l-3.401-3.108l0.898-1.484l2.976-0.186l0.804-3.525l4.016-2.506l-3.78-3.756l-1.512,0.835L17.526,25.799z
	"/>
</svg>
